<?xml version="1.0" standalone="no"?>
<!DOCTYPE svg PUBLIC "-//W3C//DTD SVG 20010904//EN"
 "http://www.w3.org/TR/2001/REC-SVG-20010904/DTD/svg10.dtd">
<svg version="1.0" xmlns="http://www.w3.org/2000/svg"
 width="519.000000pt" height="519.000000pt" viewBox="0 0 519.000000 519.000000"
 preserveAspectRatio="xMidYMid meet">
<metadata>
Created by potrace 1.14, written by Peter Selinger 2001-2017
</metadata>
<g transform="translate(0.000000,519.000000) scale(0.100000,-0.100000)"
fill="#000000" stroke="none">
<path d="M2577 4733 c-31 -7 -76 -22 -99 -34 -55 -27 -148 -106 -148 -125 0
-8 -4 -14 -9 -14 -7 0 -41 -59 -46 -80 -1 -3 -5 -12 -8 -20 -22 -49 -28 -187
-12 -241 13 -44 47 -114 59 -121 6 -4 7 -8 2 -8 -5 0 10 -18 32 -41 23 -22 42
-44 42 -49 0 -4 8 -10 18 -14 9 -3 31 -15 47 -25 17 -11 55 -28 85 -37 59 -18
187 -27 195 -14 3 5 14 7 25 5 11 -2 22 0 25 6 4 5 14 9 24 9 10 0 24 7 31 15
7 9 15 13 18 10 3 -3 21 7 41 21 38 28 125 114 115 114 -3 0 3 12 14 28 20 28
37 74 47 127 9 45 12 125 5 130 -3 2 -7 18 -8 37 -4 53 -60 155 -114 209 -41
40 -111 88 -138 94 -3 1 -23 6 -45 13 -63 17 -137 19 -198 5z m-44 -318 c25
-11 27 -74 1 -88 -19 -11 -18 -24 7 -58 11 -16 17 -29 13 -29 -3 0 -1 -6 5
-13 8 -10 7 -14 -4 -14 -8 0 -15 6 -15 14 0 7 -4 13 -8 13 -5 0 -16 16 -25 35
-13 27 -22 34 -39 31 -17 -2 -23 -10 -24 -32 -3 -50 -4 -54 -13 -54 -5 0 -9
47 -9 104 l-1 104 47 -3 c26 -1 55 -6 65 -10z m183 -7 c38 -37 11 -102 -43
-104 -15 -1 -33 -2 -39 -3 -6 -1 -11 -11 -11 -23 -1 -46 -3 -58 -12 -58 -5 0
-9 47 -8 106 l1 106 49 -5 c26 -2 55 -11 63 -19z m142 15 c-1 -8 7 -30 49
-131 26 -61 26 -88 1 -60 -7 7 -14 19 -16 27 -4 20 -30 42 -37 32 -3 -5 -16
-8 -29 -5 -19 3 -26 -3 -41 -36 -11 -25 -22 -37 -27 -32 -6 6 -1 27 11 53 12
23 21 46 21 50 0 21 47 109 58 109 6 0 11 -3 10 -7z"/>
<path d="M2441 4387 c-13 -34 4 -57 44 -57 24 0 35 5 40 19 7 22 -3 51 -19 52
-6 0 -21 2 -34 5 -17 3 -25 -2 -31 -19z"/>
<path d="M2625 4370 c1 -22 4 -43 8 -46 7 -7 67 5 68 14 10 51 2 61 -52 69
-24 3 -25 1 -24 -37z"/>
<path d="M2830 4362 c0 -10 -5 -23 -11 -29 -8 -8 -6 -14 8 -21 20 -11 39 -4
38 13 -4 43 -35 76 -35 37z"/>
<path d="M3148 4334 c-2 -42 1 -78 5 -81 10 -6 77 56 77 72 0 6 -18 28 -39 48
l-39 37 -4 -76z"/>
<path d="M2040 4324 c-58 -20 -109 -40 -115 -45 -5 -5 -17 -9 -27 -9 -10 0
-18 -4 -18 -10 0 -5 -7 -10 -15 -10 -8 0 -45 -17 -82 -37 -140 -76 -168 -93
-261 -163 -70 -52 -89 -69 -164 -141 -37 -36 -70 -63 -73 -61 -3 3 -5 1 -5 -5
0 -6 -15 -26 -32 -45 -101 -109 -268 -353 -268 -393 0 -8 -3 -15 -7 -15 -13 0
-45 -88 -39 -107 3 -10 14 -23 25 -30 17 -11 23 -3 72 95 30 59 58 112 62 117
4 6 27 39 50 75 22 36 44 67 47 70 3 3 19 23 35 45 61 83 228 255 246 255 6 0
7 5 4 10 -3 6 -2 10 3 10 8 0 41 23 102 73 8 7 40 28 70 47 30 19 57 37 60 40
3 3 23 14 45 25 22 11 42 22 45 25 7 8 204 94 271 118 31 12 60 18 63 15 3 -4
6 -1 6 6 0 7 5 9 10 6 13 -8 29 33 22 57 -6 24 -10 23 -132 -18z"/>
<path d="M3320 4267 c-17 -14 -25 -47 -12 -47 5 0 27 -8 48 -17 22 -9 42 -16
47 -15 4 1 7 -3 7 -9 0 -5 5 -7 10 -4 6 3 10 1 10 -4 0 -6 5 -11 12 -11 12 0
199 -108 208 -120 3 -4 20 -15 38 -25 17 -11 32 -23 32 -27 0 -4 4 -8 10 -8 5
0 24 -12 42 -27 53 -46 241 -236 268 -270 14 -18 35 -45 47 -60 13 -16 23 -31
23 -35 0 -4 6 -13 13 -20 22 -22 102 -158 139 -238 39 -83 73 -161 73 -170 2
-21 29 -81 41 -91 34 -28 63 -14 54 26 -1 6 -4 19 -6 30 -7 35 -77 210 -86
216 -6 3 -10 10 -11 15 -1 11 -33 82 -50 109 -58 96 -165 251 -196 284 -21 23
-36 41 -34 41 2 0 -33 36 -78 80 -45 44 -86 80 -90 80 -5 0 -9 7 -9 15 0 8 -4
15 -9 15 -5 0 -16 6 -23 13 -7 7 -38 30 -68 52 -30 22 -56 43 -58 47 -2 5 -10
8 -18 8 -8 0 -14 5 -14 10 0 6 -5 10 -11 10 -6 0 -30 14 -54 30 -24 17 -46 30
-48 30 -3 0 -33 16 -66 34 -34 19 -61 33 -61 31 0 -3 -16 4 -35 15 -41 23 -63
25 -85 7z"/>
<path d="M1935 3772 c-3 -3 -20 -6 -37 -8 -60 -4 -94 -13 -149 -39 -84 -40
-109 -55 -109 -66 0 -5 -5 -9 -10 -9 -6 0 -33 -23 -60 -52 -48 -51 -111 -164
-125 -223 -4 -16 -9 -39 -11 -50 -7 -28 -7 -132 -1 -175 3 -19 13 -55 22 -80
9 -25 17 -51 17 -57 1 -7 5 -13 10 -13 4 0 8 -5 8 -11 0 -35 140 -190 199
-221 14 -7 29 -17 33 -23 4 -5 8 -6 8 -1 0 5 7 3 15 -4 8 -7 15 -9 15 -6 0 4
7 0 16 -8 8 -9 20 -14 25 -11 5 4 15 3 22 -2 6 -4 23 -9 37 -9 14 -1 25 -3 25
-4 0 -9 220 -16 272 -9 13 2 23 12 26 26 2 13 1 23 -2 23 -8 0 -8 93 0 100 4
3 3 15 -2 27 -8 22 -13 23 -99 20 -49 -1 -90 0 -90 3 0 3 -17 6 -37 7 -48 1
-86 8 -112 23 -12 6 -21 8 -21 5 0 -3 -10 3 -22 15 -12 11 -26 20 -30 20 -13
0 -64 53 -60 62 1 4 -2 8 -7 8 -6 0 -24 29 -41 65 -24 50 -31 78 -31 122 1 87
4 104 33 163 56 114 152 177 285 187 46 3 78 1 87 -6 7 -6 16 -8 19 -5 6 7 95
-34 115 -53 7 -7 18 -16 25 -20 23 -15 75 -94 81 -123 1 -3 5 -11 9 -17 4 -7
9 -37 10 -68 1 -30 6 -55 10 -55 5 0 5 -5 1 -11 -3 -6 -6 -32 -5 -58 1 -25 3
-174 4 -331 2 -222 5 -284 15 -283 6 2 12 -2 12 -8 0 -8 5 -8 15 1 12 10 18
10 29 1 10 -9 16 -9 21 -1 5 8 11 8 19 1 7 -6 16 -8 20 -4 10 11 36 12 36 2 0
-4 6 -6 13 -3 8 3 14 21 15 42 7 189 6 212 -3 212 -7 0 -7 3 0 8 8 6 12 146 5
177 -1 6 -1 15 0 20 5 21 5 175 0 175 -3 0 -5 33 -6 72 0 85 -7 142 -22 179
-6 15 -8 30 -5 33 4 3 2 6 -3 6 -6 0 -16 16 -24 35 -8 19 -17 35 -22 35 -4 0
-8 7 -8 15 0 9 -7 18 -15 21 -8 4 -15 10 -15 15 0 18 -117 119 -138 119 -5 0
-15 6 -21 14 -15 18 -145 59 -196 62 -22 1 -40 3 -40 4 0 4 -46 6 -50 2z"/>
<path d="M3318 3765 c-1 -1 -25 -5 -53 -8 -27 -3 -63 -8 -80 -12 -43 -9 -146
-60 -172 -85 -13 -11 -23 -19 -23 -16 0 8 -65 -58 -103 -105 -20 -25 -34 -49
-30 -52 3 -4 2 -7 -4 -7 -9 0 -24 -30 -33 -65 -1 -5 -6 -17 -11 -26 -8 -16
-18 -58 -25 -114 -2 -16 -5 -81 -7 -143 -2 -132 -8 -126 117 -125 54 0 81 5
87 14 4 7 5 16 1 19 -8 6 -10 100 -2 100 3 0 5 26 4 57 -5 200 137 354 334
362 41 2 69 -2 80 -11 13 -11 14 -11 8 0 -7 11 -4 11 15 1 13 -7 32 -16 42
-21 54 -26 99 -64 143 -120 12 -15 29 -60 25 -67 -2 -2 3 -7 9 -11 7 -4 13
-26 13 -49 0 -22 5 -41 9 -41 5 0 7 -4 4 -9 -3 -5 -8 -29 -10 -55 -3 -25 -9
-54 -15 -63 -5 -10 -9 -20 -8 -23 2 -9 -37 -70 -45 -70 -4 0 -8 -5 -8 -11 0
-13 -61 -68 -71 -66 -4 1 -15 -5 -25 -14 -19 -17 -36 -23 -89 -35 -16 -3 -194
-6 -395 -7 -201 -1 -367 -5 -370 -9 -5 -6 -5 -126 -1 -178 1 -13 41 -15 299
-14 164 0 303 3 309 7 6 4 14 3 18 -2 3 -6 12 -8 19 -5 7 3 44 7 82 9 38 2 69
4 69 5 0 2 11 4 25 5 14 1 39 8 55 14 17 7 35 14 40 15 6 1 21 9 35 19 13 9
28 17 32 17 12 0 48 30 103 87 60 61 117 166 133 243 10 51 4 275 -8 275 -1 0
-3 7 -5 15 -2 8 -11 33 -21 55 -10 22 -17 43 -16 48 1 4 -2 7 -7 7 -5 0 -12 8
-15 18 -7 22 -100 118 -142 148 -49 35 -134 75 -144 69 -6 -4 -10 -2 -10 3 0
5 -6 9 -12 10 -42 3 -125 14 -135 17 -6 2 -13 2 -15 0z"/>
<path d="M866 3110 c-34 -36 -34 -48 -1 -40 30 7 102 6 113 -3 8 -6 12 -6 12
1 0 13 -67 82 -78 82 -4 -1 -24 -19 -46 -40z"/>
<path d="M817 2990 c-34 -9 -82 -26 -106 -39 -52 -27 -118 -86 -127 -113 -3
-11 -8 -17 -11 -14 -7 7 -47 -69 -64 -122 -17 -51 -19 -168 -4 -219 7 -23 10
-44 7 -47 -3 -4 0 -6 7 -6 7 0 9 -4 6 -10 -3 -5 -2 -10 3 -10 6 0 15 -14 21
-31 25 -71 170 -182 268 -205 39 -9 173 -11 173 -3 0 4 20 10 44 13 24 4 50
13 56 21 7 8 15 13 19 11 22 -14 189 162 175 185 -3 5 -1 9 4 9 8 0 28 55 37
100 4 20 8 103 5 110 -1 3 -3 19 -4 35 -8 83 -85 207 -168 270 -15 12 -94 50
-123 60 -64 22 -142 24 -218 5z m208 -39 c71 -24 107 -47 163 -104 41 -41 91
-130 89 -157 0 -3 5 -15 12 -27 9 -18 9 -23 -1 -24 -8 0 -9 -2 -2 -5 11 -5 9
-105 -2 -134 -3 -8 -8 -25 -10 -38 -7 -33 -45 -103 -60 -109 -8 -3 -12 -8 -10
-12 3 -4 -16 -25 -42 -47 -25 -21 -46 -37 -46 -34 -1 3 -14 -5 -31 -16 -16
-12 -36 -19 -42 -17 -7 3 -13 -1 -13 -7 0 -7 -7 -10 -16 -6 -9 4 -22 2 -29 -4
-7 -6 -45 -8 -91 -5 -101 6 -104 7 -104 17 0 4 -3 7 -7 6 -30 -8 -193 118
-193 149 0 7 -5 13 -12 13 -6 0 -8 3 -5 7 4 3 1 16 -6 27 -37 56 -47 229 -17
285 6 12 7 21 3 21 -4 0 -3 4 2 8 6 4 17 20 25 36 24 46 101 121 150 146 91
47 209 59 295 31z"/>
<path d="M857 2682 c-9 -10 -17 -28 -17 -39 0 -12 -3 -23 -7 -25 -7 -3 -37
-74 -50 -120 -10 -34 25 -19 36 15 10 30 15 33 51 33 36 0 41 -4 52 -33 11
-31 27 -41 41 -27 3 3 2 14 -4 23 -7 13 -26 58 -34 81 -1 3 -7 18 -13 33 -7
16 -12 32 -12 36 0 4 -6 15 -13 25 -12 16 -14 16 -30 -2z m30 -71 c12 -33 8
-41 -19 -41 -19 0 -26 34 -8 45 6 4 8 11 5 16 -4 5 -2 9 2 9 5 0 14 -13 20
-29z"/>
<path d="M990 2585 c0 -90 2 -105 16 -105 14 0 15 10 12 65 -2 36 0 65 4 65 5
0 4 8 -1 18 -6 10 -6 24 -1 32 11 17 4 30 -16 30 -11 0 -14 -20 -14 -105z"/>
<path d="M4345 2983 c-16 -2 -37 -7 -45 -10 -8 -3 -20 -7 -26 -8 -38 -8 -125
-63 -165 -103 -101 -102 -140 -229 -115 -382 2 -14 4 -25 5 -25 2 0 5 -11 7
-25 2 -13 8 -27 13 -30 5 -3 12 -16 16 -30 4 -14 14 -32 21 -40 104 -116 165
-155 279 -176 177 -33 365 65 445 231 11 24 23 52 25 64 3 12 7 29 9 39 8 37
10 101 3 108 -4 4 -2 13 4 21 9 10 8 13 -1 13 -7 0 -10 8 -7 20 3 11 1 20 -4
20 -5 0 -8 3 -7 8 3 18 -50 132 -63 132 -5 0 -9 4 -9 10 0 23 -112 119 -132
112 -5 -1 -8 2 -8 6 0 8 -47 25 -104 39 -29 7 -105 10 -141 6z m187 -56 c20
-8 39 -13 42 -9 3 3 6 0 6 -6 0 -6 9 -13 19 -17 34 -10 107 -87 141 -147 17
-32 29 -58 26 -58 -3 0 1 -17 8 -37 11 -35 13 -126 3 -163 -2 -8 -7 -32 -12
-52 -4 -21 -11 -38 -15 -38 -4 0 -13 -13 -20 -30 -22 -54 -157 -169 -181 -154
-5 3 -9 1 -9 -4 0 -12 -76 -26 -145 -27 -168 -2 -318 118 -364 290 -15 59 -3
227 18 245 3 3 15 21 25 40 24 42 33 53 69 88 27 26 101 72 122 77 5 1 17 5
25 8 36 13 49 15 125 13 46 -2 96 -10 117 -19z"/>
<path d="M4173 2664 c-37 -19 -51 -52 -47 -113 4 -60 35 -90 92 -93 62 -2 94
33 104 111 0 3 -1 9 -2 14 -1 4 -3 10 -4 15 -16 68 -80 97 -143 66z m74 -20
c26 -7 43 -46 40 -93 -3 -44 -41 -75 -80 -65 -53 13 -72 100 -32 140 25 25 36
28 72 18z"/>
<path d="M4425 2671 c-46 -13 -66 -38 -71 -86 -10 -92 28 -131 122 -126 12 0
24 8 28 16 4 12 -2 15 -37 12 -53 -4 -76 16 -83 72 -4 35 -1 45 21 67 22 22
31 25 65 19 25 -4 40 -3 40 4 0 22 -44 33 -85 22z"/>
<path d="M4559 2669 c-19 -11 -21 -209 -2 -209 15 0 26 34 18 59 -3 12 0 21
10 25 19 7 36 -8 59 -52 9 -18 23 -32 31 -32 19 0 19 2 -6 47 -20 35 -20 39
-5 64 26 44 15 89 -24 97 -39 9 -68 9 -81 1z m81 -34 c14 -9 12 -42 -2 -52
-28 -17 -56 -14 -61 8 -12 45 23 69 63 44z"/>
<path d="M2787 2551 c-6 -26 1 -753 8 -781 3 -14 8 -32 10 -40 2 -8 4 -17 5
-20 1 -3 3 -9 4 -15 2 -19 29 -80 42 -95 7 -8 13 -19 14 -25 1 -12 67 -93 94
-115 10 -8 24 -21 31 -27 8 -7 17 -13 22 -13 4 0 19 -9 33 -20 14 -11 33 -20
43 -20 9 0 17 -4 17 -9 0 -5 15 -12 33 -16 17 -4 39 -9 47 -11 52 -14 187 -23
205 -14 6 2 21 6 35 8 54 7 205 74 193 86 -4 3 1 6 10 6 9 0 17 5 17 10 0 6 5
10 11 10 6 0 31 21 56 48 25 26 44 47 42 47 -1 0 9 18 23 40 26 42 56 116 61
150 1 11 6 26 10 33 5 7 3 12 -5 12 -10 0 -10 2 -1 8 8 5 11 32 8 87 -5 102
-8 119 -34 182 -58 146 -186 270 -328 318 -74 26 -80 27 -218 31 -183 6 -170
12 -168 -93 1 -48 2 -91 2 -94 1 -10 51 -17 51 -8 0 5 11 5 23 0 13 -5 30 -5
37 -1 8 5 18 6 23 3 8 -5 110 -15 149 -15 10 1 20 -3 23 -9 4 -5 17 -9 31 -9
14 0 23 -4 20 -9 -3 -5 5 -12 18 -15 52 -13 148 -131 160 -198 3 -13 5 -23 6
-23 9 0 7 -110 -2 -149 -32 -147 -182 -265 -328 -259 -40 2 -98 12 -125 23
-16 6 -32 12 -35 13 -8 2 -39 29 -80 67 -45 43 -83 119 -84 171 -1 22 -3 39
-6 39 -3 0 -5 158 -5 351 0 193 -3 356 -7 362 -4 7 -41 12 -97 13 -74 0 -90
-2 -94 -15z"/>
<path d="M2196 2413 c-1 -1 -74 -4 -161 -7 -88 -2 -173 -7 -190 -11 -50 -10
-124 -36 -130 -46 -4 -5 -13 -9 -21 -9 -8 0 -22 -8 -33 -17 -31 -30 -64 -53
-75 -53 -5 0 -7 -2 -4 -5 3 -3 -12 -23 -32 -45 -36 -39 -76 -107 -72 -122 1
-5 -2 -8 -8 -8 -5 0 -10 -9 -10 -20 0 -11 -4 -20 -8 -20 -4 0 -8 -8 -9 -17 0
-10 -5 -43 -10 -74 -11 -67 -8 -157 8 -219 27 -99 91 -209 153 -260 16 -14 38
-33 48 -42 10 -10 18 -15 18 -10 0 4 4 2 8 -4 11 -17 112 -65 122 -59 6 4 10
2 10 -3 0 -5 6 -9 13 -10 6 -1 30 -4 52 -8 48 -8 134 -8 190 -1 110 15 254
101 326 197 19 25 37 47 40 50 3 3 17 30 32 61 39 84 48 135 51 307 2 67 0
123 -3 123 -3 1 -46 2 -96 4 -96 2 -109 -3 -94 -42 5 -12 5 -23 1 -23 -4 0 -8
-28 -8 -62 -1 -93 -7 -149 -19 -183 -29 -77 -67 -140 -79 -128 -3 3 -6 -1 -6
-11 0 -9 -4 -14 -10 -11 -5 3 -10 2 -10 -4 0 -13 -101 -72 -112 -65 -4 3 -8 1
-8 -5 0 -5 -9 -8 -20 -6 -11 2 -20 0 -20 -4 0 -4 -28 -6 -62 -5 -71 4 -81 6
-123 23 -16 7 -31 12 -33 11 -3 -1 -23 16 -71 60 -100 91 -133 251 -78 383 7
15 16 27 20 27 5 0 6 4 3 8 -10 16 88 105 143 130 31 14 76 26 107 27 28 2 57
5 62 9 6 3 14 2 17 -4 4 -6 12 -7 18 -3 7 5 153 8 325 8 209 -1 312 3 313 10
1 5 0 15 -1 20 -5 21 -3 85 2 90 3 3 2 20 -1 38 -6 27 -12 32 -36 34 -17 0
-32 2 -35 2 -22 6 -160 4 -160 -1 0 -4 -6 -5 -14 -2 -13 5 -215 11 -220 7z"/>
<path d="M834 2083 c4 -37 19 -98 26 -108 5 -5 8 -12 8 -15 -1 -7 23 -83 31
-95 3 -5 6 -15 7 -21 3 -19 105 -225 120 -243 8 -9 14 -20 13 -25 0 -5 3 -12
8 -15 4 -3 30 -40 58 -81 27 -41 54 -79 60 -85 6 -5 27 -30 47 -55 40 -50 164
-180 172 -180 3 0 16 -10 29 -22 37 -37 86 -78 92 -78 5 0 36 -25 60 -47 8 -7
16 -13 20 -13 4 0 25 -13 48 -28 23 -16 74 -46 112 -67 39 -20 76 -43 84 -49
8 -6 17 -10 20 -9 3 1 20 -4 36 -12 50 -22 64 -25 70 -14 4 5 10 7 15 4 5 -3
14 3 19 14 13 23 7 28 -79 65 -36 16 -98 47 -138 70 -41 22 -85 47 -98 54 -13
7 -24 18 -24 24 0 6 -3 8 -7 5 -3 -4 -25 9 -49 28 -23 19 -45 35 -48 35 -27 0
-356 340 -356 368 0 5 -8 17 -18 28 -26 28 -107 162 -129 212 -10 23 -21 42
-25 42 -5 0 -8 6 -8 14 0 8 -13 44 -30 80 -16 36 -27 66 -24 66 2 0 -1 10 -8
23 -7 12 -12 24 -13 27 -1 13 -30 96 -36 105 -4 6 -21 12 -37 13 -23 2 -29 -2
-28 -15z"/>
<path d="M4330 2076 c0 -16 56 -76 72 -76 8 0 88 77 88 85 0 1 -18 -1 -40 -5
-41 -7 -94 -5 -111 5 -5 4 -9 0 -9 -9z"/>
<path d="M4322 1903 c1 -5 -8 -27 -20 -50 -12 -23 -22 -47 -22 -53 0 -6 -11
-28 -24 -49 -14 -21 -22 -42 -19 -45 4 -3 1 -6 -5 -6 -7 0 -12 -6 -12 -12 0
-19 -120 -198 -184 -276 -84 -103 -246 -262 -266 -262 -4 0 -10 -3 -12 -8 -6
-13 -95 -82 -107 -82 -6 0 -11 -4 -11 -10 0 -5 -6 -10 -14 -10 -8 0 -16 -7
-20 -15 -3 -8 -14 -15 -25 -15 -11 0 -21 -4 -23 -9 -7 -20 -302 -155 -383
-175 -35 -9 -45 -21 -45 -58 l0 -26 53 14 c28 8 57 16 62 18 6 1 20 8 33 14
12 7 22 10 22 7 0 -3 17 3 38 14 20 10 40 19 45 20 15 1 82 35 89 45 4 6 8 8
8 4 0 -14 176 90 284 169 82 59 267 235 328 313 107 135 176 245 242 382 52
109 55 130 24 152 -24 17 -39 21 -36 9z"/>
<path d="M2580 1208 c-40 -7 -75 -20 -139 -51 -79 -39 -168 -158 -193 -259
-13 -54 -15 -148 -4 -203 12 -55 69 -155 117 -203 38 -38 121 -92 149 -97 3
-1 21 -6 41 -12 21 -6 68 -10 105 -8 72 3 82 5 127 23 16 7 35 12 43 12 8 0
14 5 14 10 0 6 6 10 13 10 29 0 167 152 173 190 0 3 8 30 17 60 9 30 18 68 20
84 8 66 -35 218 -75 262 -10 11 -18 24 -18 28 0 12 -84 85 -120 103 -19 10
-38 22 -41 26 -3 5 -10 8 -15 8 -5 0 -25 4 -46 9 -50 14 -115 17 -168 8z m223
-68 c243 -115 294 -437 98 -627 -30 -29 -58 -50 -63 -47 -4 3 -8 1 -8 -3 0 -8
-49 -30 -90 -41 -23 -6 -151 -7 -180 -1 -36 6 -131 54 -157 78 -50 47 -113
148 -113 181 0 10 -4 21 -8 24 -21 13 5 256 28 256 4 0 11 11 14 25 4 14 11
25 16 25 6 0 10 5 10 11 0 30 99 103 181 132 53 19 74 21 143 16 52 -4 98 -14
129 -29z"/>
<path d="M2633 902 c-13 -2 -23 -9 -23 -15 0 -7 -6 -24 -14 -39 -8 -14 -19
-42 -26 -62 -10 -30 -14 -35 -26 -25 -8 6 -14 19 -14 28 0 9 -4 21 -9 26 -5 6
-14 27 -21 48 -9 28 -17 37 -34 37 -23 0 -23 -2 -21 -102 2 -122 2 -121 15
-113 6 3 10 38 10 78 0 63 1 69 14 52 8 -11 12 -23 10 -27 -2 -4 0 -9 6 -13 5
-3 10 -14 10 -23 0 -9 11 -30 23 -46 l23 -29 29 69 c16 38 32 73 36 77 4 5 6
-21 5 -58 -1 -55 2 -68 16 -76 13 -7 18 -6 19 3 3 62 3 191 -1 201 -3 7 -15
11 -27 9z"/>
<path d="M2717 893 c-2 -5 -4 -53 -3 -108 l1 -100 61 0 c51 -1 61 1 59 14 -1
11 -14 17 -36 18 -19 1 -39 2 -45 2 -6 1 -10 34 -9 91 1 66 -2 90 -11 90 -7 0
-15 -3 -17 -7z"/>
<path d="M2122 836 l-42 -44 44 -46 c31 -31 46 -41 49 -32 3 8 3 17 -1 20 -9
9 -9 88 0 113 13 38 -7 34 -50 -11z"/>
</g>
</svg>
